<svg xmlns="http://www.w3.org/2000/svg" viewBox="0 0 100 100" width="100" height="100">
  <rect width="100" height="100" rx="18" fill="#FFE01B"/>
  <path d="M68 52.5c1.2-.8 2-2 2-3.5 0-2.8-2.7-4.5-2.7-4.5.5-1.2.7-2.7.4-4C66.5 35 60 32 52 32c-5 0-9.5 1.5-12.5 4-2.5 2-4 4.8-4 8 0 1.2.2 2.4.6 3.5C33.5 49 32 51.5 32 54.5c0 4 2.8 7.5 7 9.5C41 66 45 67 50 67c5 0 9-.8 12-2.5 4-2 6.5-5.5 6.5-9.5 0-1.2-.2-2.3-.5-2.5zM50 36c6 0 11.5 2.5 12.5 6 .2.8.3 1.7.1 2.5-1.5-.5-3.5-.8-6-.8-4 0-7.5.8-10 2.5-1.8 1.2-2.8 2.8-2.8 4.5 0 .3 0 .5.1.8C42 50.8 40.5 50 40 49c-.8-1.2-1-2.7-.5-4.2C40.5 39.5 45 36 50 36zm-.5 27c-8.5 0-13.5-4-13.5-9 0-2 .8-3.8 2.5-5 2-1.5 5-2.2 8-2.2 1.5 0 3 .2 4 .5-.5 1-1 2.2-1 3.5 0 3.8 3.5 6.5 8.5 6.5 1.5 0 3-.3 4-.8-.5 4-6 6.5-12.5 6.5z" fill="#241C15"/>
  <circle cx="44" cy="53" r="2.5" fill="white"/>
  <circle cx="56" cy="53" r="2.5" fill="white"/>
  <path d="M44.5 61c1.5 2.5 9.5 2.5 11 0" stroke="#241C15" stroke-width="1.5" fill="none" stroke-linecap="round"/>
</svg>
