<svg xmlns="http://www.w3.org/2000/svg" viewBox="0 0 100 100" width="100" height="100">
  <circle cx="50" cy="50" r="50" fill="#21759B"/>
  <circle cx="50" cy="50" r="50" fill="none" stroke="white" stroke-width="2"/>
  <path d="M10.2 50C10.2 68.5 21 84.5 36.4 92L13.4 32C11.4 37.4 10.2 43.6 10.2 50z" fill="white"/>
  <path d="M79.6 47.8c0-5.7-2-9.6-3.8-12.7-2.3-3.8-4.5-7-4.5-10.8 0-4.2 3.2-8.2 7.7-8.2.2 0 .4 0 .6.1C71.5 9.4 61.2 5.8 50 5.8c-15.1 0-28.4 7.7-36.1 19.4.8 0 1.6.1 2.3.1 3.8 0 9.6-.5 9.6-.5 1.9-.1 2.2 2.7.3 2.9 0 0-2 .2-4.2.3L36.3 68l10.6-31.8-7.6-20.8c1.9-.1 3.7-.3 3.7-.3 1.9-.1 2.2 2.7.3 2.9 0 0-1.9.2-4.1.3l13.6 40.4 3.7-12.5-3.2-8.4c1.9-.1 3.7-.3 3.7-.3 1.9-.1 2.2 2.7.3 2.9 0 0-1.9.2-4.1.3l13.5 40.1.4-1.2C77.7 62.3 79.6 55.3 79.6 47.8z" fill="white"/>
  <path d="M50.8 53.4l-11.2 32.6c3.3 1 6.8 1.5 10.4 1.5 4.3 0 8.4-.7 12.2-2.1-.1-.2-.2-.4-.3-.6L50.8 53.4z" fill="white"/>
  <path d="M86.3 29.5c.2 1.5.4 3 .4 4.7 0 4.7-.9 9.9-3.5 16.5L72.4 82.7C84.1 76.2 92 63.9 92 50 92 42.5 89.9 35.5 86.3 29.5z" fill="white"/>
</svg>
